<?xml version="1.0" encoding="UTF-8" standalone="no"?>
<svg
   xmlns:dc="http://purl.org/dc/elements/1.1/"
   xmlns:cc="http://creativecommons.org/ns#"
   xmlns:rdf="http://www.w3.org/1999/02/22-rdf-syntax-ns#"
   xmlns:svg="http://www.w3.org/2000/svg"
   xmlns="http://www.w3.org/2000/svg"
   viewBox="0 0 2666.6667 2666.6667"
   height="2666.6667"
   width="2666.6667"
   xml:space="preserve"
   id="svg2"
   version="1.1"><metadata
     id="metadata8"><rdf:RDF><cc:Work
         rdf:about=""><dc:format>image/svg+xml</dc:format><dc:type
           rdf:resource="http://purl.org/dc/dcmitype/StillImage" /></cc:Work></rdf:RDF></metadata><defs
     id="defs6" /><g
     transform="matrix(1.3333333,0,0,-1.3333333,0,2666.6667)"
     id="g10"><g
       transform="scale(0.1)"
       id="g12"><path
         id="path14"
         style="fill:#100f0d;fill-opacity:1;fill-rule:nonzero;stroke:none"
         d="m 13626,9389.6 -1413.2,1102.4 -795.5,-472.5 v -629.9 l 786.2,341.2 861,-433.1 -861,609.9 v 230.1 L 13626,9389.6" /><path
         id="path16"
         style="fill:#100f0d;fill-opacity:1;fill-rule:nonzero;stroke:none"
         d="m 13626,8516.9 -1413.2,1102.4 -795.5,-472.5 v -629.9 l 786.2,341.2 861,-433.1 -861,609.9 v 230 l 1422.5,-748" /><path
         id="path18"
         style="fill:#100f0d;fill-opacity:1;fill-rule:nonzero;stroke:none"
         d="m 13626,7644.2 -1413.2,1102.3 -795.5,-472.4 v -629.9 l 786.2,341.2 861,-433.1 -861,609.9 v 230 l 1422.5,-748" /><path
         id="path20"
         style="fill:#100f0d;fill-opacity:1;fill-rule:nonzero;stroke:none"
         d="m 13626,6771.5 -1413.2,1102.3 -795.5,-472.4 v -629.9 l 786.2,341.2 861,-433.1 -861,609.9 v 230 l 1422.5,-748" /><path
         id="path22"
         style="fill:#100f0d;fill-opacity:1;fill-rule:nonzero;stroke:none"
         d="m 13626,5898.7 -1413.2,1102.4 -795.5,-472.4 v -630 l 786.2,341.2 861,-433 -861,609.9 v 230 L 13626,5898.7" /><path
         id="path24"
         style="fill:#100f0d;fill-opacity:1;fill-rule:nonzero;stroke:none"
         d="m 12828.9,5445.2 c -0.1,0 -0.2,0 -0.3,0.1 h -0.2 c -45.6,10.8 -91.6,21.1 -138.1,31.3 -34.4,7.8 -68.7,15.1 -103.5,22.2 -67.7,14.3 -136,27.7 -204.9,40.7 -59,11.2 -118.4,22 -178.4,31.9 v 202.7 z m -3085.99,7251.3 v 638.8 l 623.99,307.6 v -639.1 z m 0,1585.3 623.99,307.5 v -639.1 l -623.99,-307.3 z m 0,946.6 623.99,307.4 v -638.9 l -623.99,-307.6 z M 6554.32,5279.3 v 6430.1 l 1318.4,814.2 v -6939 c -472.03,-78 -914.45,-181.1 -1318.4,-305.3 z m 3052.65,9243 -552.44,-272.3 v 638.9 l 552.44,272.3 z m 0,-946.6 -552.44,-272.3 v 639.1 l 552.44,272.3 z m -688.38,607.3 -623.98,-307.5 v 638.8 l 623.98,307.6 z m 0,-946.6 -623.98,-307.6 v 639.1 l 623.98,307.6 z M 14045.7,5067.2 c -56.5,22.7 -113.9,45 -172.5,66.8 -67,24.9 -135.3,49.3 -204.9,72.9 -34.2,11.6 -68.7,23.1 -103.8,34.5 -113.1,36.7 -229.5,71.7 -349.2,105 l -1002.5,782 -760.9,-451.9 v 0 c -50.4,5.4 -101.2,10.6 -152.2,15.6 -37,3.4 -73.9,6.9 -111.1,10.1 v 4473.7 l 122.3,72.7 795.4,472.4 122.6,72.9 103.9,-81.1 v 3817.8 l -1095.8,824.1 v 0.2 l -729.4,548.3 -2320.62,-1143.8 v -1853.3 l 371.31,-155 360.3,177.7 v -327.9 l 135.94,-56.6 v 451.7 l 552.44,272.4 v -639.2 l -346.46,-170.7 338.03,-140.9 8.43,4.3 v -7.8 l 135.94,-56.8 v 131.6 l 623.99,307.6 v -639.1 l -449.57,-221.8 v -307.3 l 449.57,221.5 v -638.9 l -449.57,-221.5 v -307.6 l 449.57,221.6 v -639.1 l -449.57,-221.6 v -307.5 l 449.57,221.7 v -639.1 l -449.57,-221.5 v -307.6 l 449.57,221.8 v -639.1 l -449.57,-221.8 v -307.3 l 449.57,221.5 v -638.9 l -449.57,-221.7 v -307.3 l 449.57,221.5 v -639.1 l -449.57,-221.5 v -307.6 l 449.57,221.7 v -322.2 c -63.8,1.7 -127.7,2.8 -191.9,3.7 -58.2,0.6 -116.5,1 -175.11,1 -46.25,0 -92.29,-0.2 -138.32,-0.6 -57.93,-0.7 -115.63,-1.5 -173.12,-2.8 v 6254.4 l -1638.28,683 -162.96,67.8 -5.62,2.4 -8.87,-5.6 -1498.65,-963.7 v -6567 c -75,-25 -148.7,-50.8 -220.67,-77.3 -0.43,-0.3 -0.87,-0.3 -1.3,-0.5 -54.46,-20.1 -107.85,-40.6 -160.37,-61.4 h -0.21 c -679.31,-269.3 -1208.61,-606.2 -1529.35,-985.3 476.57,254.4 1131.45,472.9 1911.9,639.1 59.44,12.5 119.52,25.1 180.25,37 383.42,76 794.93,139.6 1228.49,189.1 h 0.22 c 29.83,3.4 59.65,6.7 89.69,9.9 400.06,43.5 818.28,75.2 1250.54,93.6 185.88,7.8 374.34,13.2 565.19,15.8 34.36,0.8 68.94,1.1 103.52,1.5 h 0.22 c 23.12,0.2 46.04,0.4 69.38,0.6 18.58,0 37.17,0.3 55.76,0.3 27.45,0.2 54.9,0.2 82.56,0.2 94.01,0 187.81,-0.7 280.71,-2 29,-0.2 57.8,-0.8 86.3,-1.3 20.3,-0.2 40.6,-0.6 60.7,-1.1 188.7,-3.8 375,-10.1 558.9,-19 67.7,-3.2 135.1,-6.7 202.1,-10.6 37.2,-2.1 74.1,-4.3 111.1,-6.7 39.3,-2.6 78.5,-5.1 117.6,-8 v 0 -9.2 l 18.3,7.9 c 0,0 0,0 0.1,0 h 0.2 c 119.7,-8.4 238.1,-17.9 355.1,-28.7 201.2,-17.9 398.3,-39.1 590.9,-63.1 68.9,-8.4 137.2,-17.3 204.9,-26.6 25.3,-3.5 50.5,-6.9 75.6,-10.6 l 27.9,-3.9 c 421.2,-60.5 817.6,-134.6 1182.9,-220.6 58.3,-13.7 115.8,-27.7 172.5,-42.2 596.7,-150.6 1103.7,-334.1 1492.1,-541.4 -314.9,372.2 -830.8,703.7 -1492.1,970.4" /></g></g></svg>