<?xml version="1.0" encoding="UTF-8" standalone="no"?>
<svg
   xmlns:dc="http://purl.org/dc/elements/1.1/"
   xmlns:cc="http://creativecommons.org/ns#"
   xmlns:rdf="http://www.w3.org/1999/02/22-rdf-syntax-ns#"
   xmlns:svg="http://www.w3.org/2000/svg"
   xmlns="http://www.w3.org/2000/svg"
   viewBox="0 0 426.66666 287.23999"
   height="287.23999"
   width="426.66666"
   xml:space="preserve"
   id="svg2"
   version="1.1"><metadata
     id="metadata8"><rdf:RDF><cc:Work
         rdf:about=""><dc:format>image/svg+xml</dc:format><dc:type
           rdf:resource="http://purl.org/dc/dcmitype/StillImage" /></cc:Work></rdf:RDF></metadata><defs
     id="defs6" /><g
     transform="matrix(1.3333333,0,0,-1.3333333,0,287.24)"
     id="g10"><g
       transform="scale(0.1)"
       id="g12"><path
         id="path14"
         style="fill:#100f0d;fill-opacity:1;fill-rule:nonzero;stroke:none"
         d="m 724.973,1374.29 c 215.398,0 389.997,174.63 389.997,390.03 0,215.38 -174.599,390.02 -389.997,390.02 -215.403,0 -390.032,-174.64 -390.032,-390.02 0,-215.4 174.629,-390.03 390.032,-390.03 z m 489.847,-264.83 c -44.71,49.55 -79.9,107.79 -102.97,171.77 -55.17,20.18 -114.741,31.2 -176.889,31.2 H 514.98 C 230.559,1312.43 0,1081.88 0,797.473 V 440.148 c 202.988,-83.312 453.633,-132.55 724.973,-132.55 7.117,0 14.16,0.156 21.25,0.234 v 182.07 c 0,294.278 198.484,543.068 468.597,619.558 z m 1260.21,264.83 c 215.4,0 390.03,174.63 390.03,390.03 0,215.38 -174.63,390.02 -390.03,390.02 -215.36,0 -389.99,-174.64 -389.99,-390.02 0,-215.4 174.63,-390.03 389.99,-390.03 z m 209.99,-61.86 h -419.94 c -62.16,0 -121.75,-11.02 -176.93,-31.2 -23.06,-63.98 -58.27,-122.21 -102.97,-171.75 270.1,-76.51 468.61,-325.3 468.61,-619.578 v -182.07 c 7.08,-0.078 14.14,-0.234 21.24,-0.234 271.34,0 521.98,49.238 724.97,132.55 v 357.325 c 0,284.407 -230.59,514.957 -514.98,514.957 z M 1250.9,1282.86 c 37.28,-74.7 97.81,-135.72 172.14,-173.65 28.85,-14.71 59.74,-25.94 92.19,-33.14 27.3,-6.05 55.63,-9.35 84.75,-9.35 29.13,0 57.51,3.3 84.82,9.37 32.43,7.19 63.38,18.42 92.22,33.14 74.31,37.94 134.8,98.94 172.08,173.62 14.45,28.93 25.41,59.87 32.32,92.34 5.6,26.29 8.6,53.56 8.6,81.53 0,215.41 -174.59,390.03 -390.04,390.03 -215.37,0 -389.99,-174.62 -389.99,-390.03 0,-27.97 3.01,-55.22 8.6,-81.51 6.91,-32.48 17.87,-63.43 32.31,-92.35 z m 559.07,-278 h -419.94 c -284.42,0 -514.979,-230.59 -514.979,-514.958 V 132.512 C 1078.05,49.2773 1328.69,0 1599.98,0 c 271.34,0 522,49.2773 724.96,132.578 v 357.324 c 0,284.422 -230.56,514.958 -514.97,514.958" /></g></g></svg>