<?xml version="1.0" encoding="UTF-8"?>
<svg viewBox="0 0 42.39917 55.29895" xmlns="http://www.w3.org/2000/svg" xmlns:xlink="http://www.w3.org/1999/xlink">
 <defs>
  <linearGradient id="a">
   <stop stop-color="#a18930" offset="0"/>
   <stop stop-color="#e3c565" offset=".66667"/>
   <stop stop-color="#fffbcc" offset="1"/>
  </linearGradient>
  <linearGradient id="c" x1="32.232" x2="41.601" y1="52.825" y2="65.947" gradientUnits="userSpaceOnUse" xlink:href="#a" spreadMethod="reflect"/>
  <linearGradient id="b" x1="44.906" x2="51.25" y1="38.795" y2="47.564" gradientUnits="userSpaceOnUse" xlink:href="#a" spreadMethod="reflect"/>
 </defs>
 <g transform="translate(-130.33 -713.51)">
  <path d="m169.93 721.61-8.8989 8.5022c-2.3336-2.0019-4.9673-3.0029-7.901-3.0029-1.2655 3e-5 -2.4318 0.26706-3.4988 0.80108s-1.6007 1.3342-1.6006 2.4002c-2e-5 1.9328 2.0335 3.3661 6.1005 4.2999 5.9326 1.3326 9.732 2.4994 11.398 3.5004 4.1341 2.533 6.2011 6.7658 6.2012 12.698-4e-5 5.0008-2 9.0846-5.9998 12.251s-8.9 4.7501-14.7 4.7501c-7.6009 0-14.167-2.4668-19.699-7.4005l7.6996-10.098c1.5991 1.4669 3.4988 2.65 5.6992 3.5492s4.4001 1.3489 6.5994 1.3489c1.6683 1e-5 3.0522-0.36671 4.1519-1.1002s1.6494-1.566 1.6495-2.4979c-3e-5 -1.7334-2.0335-3.1667-6.1005-4.2999-5.8004-1.6011-9.6334-2.9683-11.499-4.1016-4.1341-2.5329-6.2012-6.2998-6.2012-11.301 0-5.7332 1.9999-10.166 5.9998-13.3 3.5339-2.7323 7.9346-4.0985 13.202-4.0985 3.3996 5e-5 6.4992 0.58344 9.2987 1.7502s5.4992 2.9496 8.0994 5.3482z" fill="url(#c)" stroke="url(#b)" stroke-width="2"/>
 </g>
</svg>
